<?xml version="1.0" encoding="UTF-8"?>
<svg id="Layer_2" data-name="Layer 2" xmlns="http://www.w3.org/2000/svg" viewBox="0 0 196.05 48.26">
  <defs>
    <style>
      .cls-1 {
        fill: #fafaff;
        stroke-width: 0px;
      }
    </style>
  </defs>
  <g id="Layer_1-2" data-name="Layer 1">
    <g>
      <g>
        <path class="cls-1" d="M69.99,43.03c-.13.2-.29.36-.5.47s-.44.18-.7.22c-.26.04-.52.06-.78.06-.92,0-1.6-.22-2.05-.65-.45-.44-.67-1.13-.67-2.08,0-.48.04-.89.12-1.23.08-.34.22-.62.41-.84.19-.22.43-.39.74-.49.3-.1.67-.15,1.1-.15.3,0,.6.02.89.06.29.04.56.12.79.24.23.12.42.29.57.51.15.22.22.5.22.85h.93c0-.47-.08-.86-.22-1.19-.15-.33-.37-.59-.65-.8s-.63-.36-1.05-.45c-.42-.09-.89-.14-1.43-.14-1.16,0-2.02.3-2.58.89-.56.59-.85,1.51-.85,2.75s.3,2.16.91,2.76c.6.6,1.53.9,2.77.9.47,0,.91-.04,1.29-.13s.72-.23,1-.42.48-.45.63-.77c.15-.32.22-.71.22-1.17h-.93c0,.35-.06.62-.19.82Z"/>
        <path class="cls-1" d="M77.98,41.28c.22-.18.38-.4.49-.67.1-.27.15-.58.15-.93s-.05-.66-.16-.92c-.11-.26-.28-.48-.5-.67s-.52-.31-.88-.41c-.36-.09-.79-.13-1.3-.13h-3.13v7h.97v-2.73h1.51l2.18,2.73h1.2l-2.2-2.75c.31-.02.59-.05.84-.12.34-.09.62-.22.84-.4ZM75.78,40.92h-2.17v-2.47h2.17c.35,0,.64.03.87.08.23.05.42.13.56.23.14.1.24.23.3.38.06.15.1.33.1.54s-.03.39-.1.54c-.06.15-.16.28-.3.39-.14.1-.33.18-.56.23-.23.05-.52.08-.87.08Z"/>
        <polygon class="cls-1" points="81.19 41.5 85.22 41.5 85.22 40.6 81.19 40.6 81.19 38.45 85.62 38.45 85.62 37.55 81.19 37.55 80.49 37.55 80.22 37.55 80.22 44.55 80.49 44.55 81.19 44.55 85.72 44.55 85.72 43.65 81.19 43.65 81.19 41.5"/>
        <path class="cls-1" d="M89.68,37.55l-2.94,7h1.05l.55-1.31h3.72l.55,1.31h1.05l-2.93-7h-1.05ZM91.68,42.34h-2.97l1.49-3.54,1.48,3.54Z"/>
        <polygon class="cls-1" points="96.09 37.55 93.76 37.55 93.76 38.45 96.09 38.45 96.09 44.55 97.06 44.55 97.06 38.45 99.39 38.45 99.39 37.55 97.06 37.55 96.09 37.55"/>
        <rect class="cls-1" x="100.79" y="37.55" width=".97" height="7"/>
        <polygon class="cls-1" points="106.33 43.27 103.99 37.55 102.94 37.55 105.81 44.55 106.86 44.55 109.73 37.55 108.68 37.55 106.33 43.27"/>
        <polygon class="cls-1" points="111.88 41.5 115.91 41.5 115.91 40.6 111.88 40.6 111.88 38.45 116.31 38.45 116.31 37.55 111.88 37.55 111.18 37.55 110.91 37.55 110.91 44.55 111.18 44.55 111.88 44.55 116.41 44.55 116.41 43.65 111.88 43.65 111.88 41.5"/>
        <polygon class="cls-1" points="123.06 37.55 120.73 37.55 120.73 38.45 123.06 38.45 123.06 44.55 124.03 44.55 124.03 38.45 126.36 38.45 126.36 37.55 124.03 37.55 123.06 37.55"/>
        <polygon class="cls-1" points="128.73 41.5 132.76 41.5 132.76 40.6 128.73 40.6 128.73 38.45 133.16 38.45 133.16 37.55 128.73 37.55 128.03 37.55 127.76 37.55 127.76 44.55 128.03 44.55 128.73 44.55 133.26 44.55 133.26 43.65 128.73 43.65 128.73 41.5"/>
        <path class="cls-1" d="M140.23,43.03c-.13.2-.29.36-.5.47-.21.11-.44.18-.69.22-.26.04-.52.06-.78.06-.92,0-1.6-.22-2.05-.65s-.67-1.13-.67-2.08c0-.48.04-.89.12-1.23.08-.34.22-.62.41-.84.19-.22.44-.39.73-.49.3-.1.67-.15,1.1-.15.3,0,.6.02.89.06s.56.12.79.24c.23.12.42.29.57.51.15.22.22.5.22.85h.93c0-.47-.07-.86-.22-1.19s-.37-.59-.65-.8-.63-.36-1.05-.45c-.42-.09-.9-.14-1.44-.14-1.16,0-2.02.3-2.59.89-.56.59-.84,1.51-.84,2.75s.3,2.16.9,2.76,1.53.9,2.78.9c.47,0,.9-.04,1.29-.13s.72-.23.99-.42.49-.45.64-.77c.15-.32.22-.71.22-1.17h-.93c0,.35-.06.62-.19.82Z"/>
        <polygon class="cls-1" points="148.08 40.6 143.85 40.6 143.85 37.55 142.88 37.55 142.88 44.55 143.85 44.55 143.85 41.5 148.08 41.5 148.08 44.55 149.05 44.55 149.05 37.55 148.08 37.55 148.08 40.6"/>
        <polygon class="cls-1" points="155.88 42.95 151.87 37.55 150.9 37.55 150.9 44.55 151.87 44.55 151.87 39.14 155.88 44.55 156.85 44.55 156.85 37.55 155.88 37.55 155.88 42.95"/>
        <path class="cls-1" d="M161.99,37.4c-1.2,0-2.09.31-2.67.92s-.87,1.52-.87,2.73.29,2.12.87,2.73,1.47.92,2.67.92,2.08-.31,2.66-.92.87-1.52.87-2.73-.29-2.12-.87-2.73-1.47-.92-2.66-.92ZM163.88,43.09c-.41.46-1.04.69-1.91.69s-1.48-.23-1.89-.69c-.41-.46-.62-1.13-.62-2.04s.2-1.59.61-2.05c.41-.46,1.04-.69,1.9-.69s1.5.23,1.91.69c.41.46.61,1.14.61,2.04s-.21,1.59-.61,2.04Z"/>
        <polygon class="cls-1" points="168.07 37.55 167.1 37.55 167.1 44.55 167.37 44.55 168.07 44.55 172.47 44.55 172.47 43.65 168.07 43.65 168.07 37.55"/>
        <path class="cls-1" d="M177.17,37.4c-1.2,0-2.09.31-2.67.92s-.87,1.52-.87,2.73.29,2.12.87,2.73,1.47.92,2.67.92,2.08-.31,2.66-.92.87-1.52.87-2.73-.29-2.12-.87-2.73-1.47-.92-2.66-.92ZM179.07,43.09c-.41.46-1.04.69-1.91.69s-1.48-.23-1.89-.69c-.41-.46-.62-1.13-.62-2.04s.2-1.59.61-2.05c.41-.46,1.04-.69,1.9-.69s1.5.23,1.91.69c.41.46.61,1.14.61,2.04s-.21,1.59-.61,2.04Z"/>
        <path class="cls-1" d="M185.53,41.84h2.18c-.05.1-.09.2-.15.31-.16.3-.35.58-.55.82s-.43.44-.69.59c-.26.15-.55.23-.88.23-.38,0-.72-.05-1.01-.16-.29-.11-.54-.27-.74-.49-.2-.22-.35-.51-.46-.85s-.16-.76-.16-1.24.04-.88.12-1.22c.08-.34.22-.62.41-.84.19-.22.44-.39.73-.49.3-.1.67-.15,1.1-.15.3,0,.6.02.89.06s.56.12.79.24c.23.12.42.29.57.51.15.22.22.5.22.85h.93c0-.47-.07-.86-.22-1.19s-.37-.59-.65-.8-.63-.36-1.05-.45c-.42-.09-.89-.14-1.43-.14-1.17,0-2.03.3-2.6.89-.56.59-.84,1.51-.84,2.75,0,.61.07,1.15.21,1.61.14.46.35.84.62,1.15s.61.53,1,.68c.4.15.85.23,1.37.23.43,0,.82-.1,1.17-.29.35-.2.65-.45.92-.77.23-.27.43-.58.61-.91v1.83h.93v-3.57h-3.37v.86Z"/>
        <polygon class="cls-1" points="196.05 37.55 194.87 37.55 192.87 40.2 190.86 37.55 189.68 37.55 192.38 41.11 192.38 44.55 193.35 44.55 193.35 41.11 196.05 37.55"/>
      </g>
      <g>
        <path class="cls-1" d="M78.88,25.52l-5.11-22.06h-8.53v28.05h5.46V12.54c0-.54,0-1.31-.02-2.29-.01-.98-.02-1.74-.02-2.27l5.28,23.54h5.7l5.32-23.54c0,.53,0,1.29-.02,2.27-.01.98-.02,1.75-.02,2.29v18.97h5.46V3.46h-8.43l-5.07,22.06Z"/>
        <path class="cls-1" d="M113.27,30.09c-.18-.25-.29-.74-.32-1.45-.03-.94-.04-1.74-.04-2.4v-9.51c0-2.5-.89-4.2-2.66-5.1-1.77-.9-3.8-1.35-6.08-1.35-3.5,0-5.98.91-7.42,2.74-.9,1.17-1.41,2.66-1.53,4.47h5.23c.13-.8.39-1.43.77-1.9.54-.63,1.46-.95,2.76-.95,1.16,0,2.04.16,2.63.49.6.32.9.91.9,1.76,0,.7-.39,1.21-1.17,1.54-.43.19-1.16.35-2.17.48l-1.86.23c-2.11.27-3.71.71-4.79,1.33-1.98,1.14-2.97,2.99-2.97,5.54,0,1.97.62,3.49,1.85,4.56,1.23,1.07,2.79,1.61,4.68,1.61,1.48,0,2.81-.34,3.98-1.01.98-.57,1.85-1.26,2.6-2.07.04.47.09.89.15,1.26s.18.76.34,1.18h5.9v-.8c-.36-.17-.62-.37-.8-.63ZM107.5,23.45c-.04,1.81-.56,3.06-1.55,3.75-1,.68-2.09,1.03-3.28,1.03-.75,0-1.38-.21-1.9-.62s-.78-1.08-.78-2.01c0-1.04.43-1.81,1.28-2.3.5-.29,1.34-.54,2.49-.74l1.23-.23c.62-.11,1.1-.24,1.46-.37.35-.13.7-.31,1.05-.52v2.02Z"/>
        <path class="cls-1" d="M127.1,10.28c-1.62,0-2.94.42-3.96,1.27-.62.51-1.35,1.45-2.19,2.83v-3.62h-5.18v20.74h5.46v-9.91c0-1.66.21-2.89.63-3.69.75-1.42,2.21-2.13,4.4-2.13.16,0,.38,0,.65.02.27.01.57.04.91.08v-5.56c-.24-.01-.4-.02-.47-.03-.07,0-.16,0-.26,0Z"/>
        <polygon class="cls-1" points="142.73 10.77 138.32 26.07 134 10.77 127.91 10.77 135.35 31.51 141.06 31.51 148.55 10.77 142.73 10.77"/>
        <path class="cls-1" d="M166.21,14.26c-.94-1.4-2.14-2.42-3.58-3.07-1.45-.65-3.07-.97-4.88-.97-3.04,0-5.51.96-7.42,2.88s-2.86,4.67-2.86,8.27c0,3.83,1.05,6.6,3.17,8.3s4.54,2.55,7.31,2.55c3.34,0,5.95-1.01,7.8-3.03,1.2-1.27,1.87-2.52,2.01-3.75h-5.54c-.32.61-.7,1.08-1.12,1.43-.77.63-1.78.95-3.01.95-1.16,0-2.16-.26-2.99-.78-1.36-.84-2.08-2.3-2.17-4.38h15.11c.03-1.79-.03-3.16-.18-4.12-.25-1.63-.8-3.06-1.65-4.29ZM153.07,19.09c.2-1.35.68-2.42,1.44-3.21s1.85-1.19,3.24-1.19c1.28,0,2.35.37,3.22,1.12.87.75,1.35,1.84,1.45,3.28h-9.34Z"/>
        <rect class="cls-1" x="169.57" y="3.46" width="5.42" height="28.05"/>
        <path class="cls-1" d="M194.37,21.33c-1.08-1.03-2.7-1.79-4.86-2.3-3.24-.71-5.13-1.21-5.66-1.5-.54-.28-.8-.73-.8-1.35,0-.5.25-.93.75-1.29.5-.37,1.35-.55,2.53-.55,1.44,0,2.46.37,3.05,1.1.32.41.52.96.59,1.66h5.42c-.24-2.54-1.18-4.32-2.81-5.36-1.63-1.03-3.75-1.55-6.34-1.55-2.73,0-4.85.69-6.36,2.06-1.51,1.38-2.26,3.02-2.26,4.94,0,1.62.48,2.87,1.45,3.73.96.88,2.62,1.61,4.98,2.19,3.27.77,5.17,1.32,5.67,1.64s.76.78.76,1.39-.32,1.11-.95,1.43c-.63.32-1.48.48-2.55.48-1.82,0-3.07-.36-3.75-1.08-.38-.41-.63-1.09-.75-2.05h-5.5c0,2.13.78,3.88,2.34,5.26,1.56,1.38,3.97,2.06,7.24,2.06s5.57-.65,7.1-1.95c1.53-1.3,2.3-2.98,2.3-5.03,0-1.56-.53-2.86-1.6-3.9Z"/>
      </g>
      <g>
        <polygon class="cls-1" points="24.38 21.72 32.35 48.26 24.38 48.26 24.38 21.72"/>
        <path class="cls-1" d="M0,0v48.26h16.03V11.63h5.33l8-.02,8,21.96,6.84-22.12h4.01s0-11.45,0-11.45H0ZM12.77,4.59c0,.86.7,1.55,1.56,1.55-.86,0-1.56.7-1.56,1.56,0-.86-.69-1.56-1.55-1.56.86,0,1.55-.69,1.55-1.55ZM5.63,13.54c0-.57-.46-1.04-1.03-1.04.57,0,1.03-.46,1.03-1.03,0,.57.46,1.03,1.03,1.03-.57,0-1.03.47-1.03,1.04ZM7.31,15.49c0-.48-.39-.87-.87-.87.48,0,.87-.39.87-.88,0,.49.39.88.87.88-.48,0-.87.39-.87.87ZM9.55,15.49c0-3.24-2.63-5.87-5.87-5.87,3.24,0,5.87-2.63,5.87-5.88,0,3.25,2.63,5.88,5.87,5.88-3.24,0-5.87,2.63-5.87,5.87Z"/>
        <polygon class="cls-1" points="48.21 25.31 48.21 48.26 42.71 48.24 48.21 25.31"/>
      </g>
    </g>
  </g>
</svg>